<svg width="100" height="100" viewBox="0 0 100 100" fill="none" xmlns="http://www.w3.org/2000/svg">
<path opacity="0.3" d="M50 100C67.2589 100 81.25 97.9013 81.25 95.3125C81.25 92.7237 67.2589 90.625 50 90.625C32.7411 90.625 18.75 92.7237 18.75 95.3125C18.75 97.9013 32.7411 100 50 100Z" fill="black"/>
<path d="M84.375 31.25V68.75C84.375 72.2656 83.2187 75.5 81.25 78.1094V78.125C78.6094 81.625 74.5469 83.9844 69.9219 84.3281C69.5469 84.3594 69.1406 84.375 68.75 84.375H31.25C22.625 84.375 15.625 77.375 15.625 68.75V31.25C15.625 30.8594 15.6406 30.4531 15.6719 30.0781C16.0156 25.4531 18.375 21.3906 21.875 18.75H21.8906C24.5 16.7813 27.7344 15.625 31.25 15.625H68.75C77.375 15.625 84.375 22.625 84.375 31.25Z" fill="#FFCE29"/>
<path opacity="0.3" d="M21.8906 18.75H21.875C18.375 21.3906 16.0156 25.4531 15.6719 30.0781C15.6406 30.4531 15.625 30.8594 15.625 31.25V50C19.9391 50 23.4375 46.5016 23.4375 42.1875V31.25C23.4375 31.0812 23.4422 30.9047 23.4641 30.6563C23.6234 28.5078 24.6797 26.5156 26.3734 25.1484C26.4484 25.0969 26.5219 25.0422 26.5953 24.9875C27.9391 23.9734 29.5484 23.4375 31.25 23.4375H40.625C44.9391 23.4375 48.4375 19.9391 48.4375 15.625H31.25C27.7344 15.625 24.5 16.7813 21.8906 18.75Z" fill="white"/>
<path opacity="0.15" d="M84.375 68.75V43.75C80.0609 43.75 76.5625 47.2469 76.5625 51.5625V68.75C76.5625 73.0578 73.0578 76.5625 68.75 76.5625H51.5625C47.2484 76.5625 43.75 80.0594 43.75 84.375H68.75C77.3797 84.375 84.375 77.3797 84.375 68.75Z" fill="black"/>
<path d="M21.0938 36.7187V31.25C21.0938 31.0109 21.1016 30.7625 21.1219 30.5328C21.3328 27.7063 22.6891 25.1266 24.8656 23.3547L25.1844 23.1172" stroke="white" stroke-width="4.6875" stroke-miterlimit="10" stroke-linecap="round" stroke-linejoin="round"/>
<path d="M44.4391 74.3219C43.7312 74.3422 43.1781 74.1563 42.7812 73.7594C42.3859 73.3641 42.1875 72.8531 42.1875 72.2266C42.1875 71.7484 42.3281 71.3297 42.6109 70.9734C42.8906 70.6188 43.3031 70.4234 43.8469 70.3797L44.7531 70.3156C46.4234 70.2141 47.2562 69.3344 47.2562 67.6875V54.2C47.2562 53.4078 47.4656 52.7969 47.8828 52.3687C48.3 51.9406 48.8938 51.7266 49.6688 51.7266C51.2938 51.7266 52.1078 52.5516 52.1078 54.2V67.6266C52.1078 71.7781 49.9172 73.9891 45.5344 74.2609L44.4391 74.3219Z" fill="#9C34C2"/>
<path d="M64.4047 74.4156C63.0703 74.4156 61.7328 74.2703 60.3984 73.9781C59.0641 73.6875 57.9047 73.2594 56.925 72.6953C56.3422 72.3828 55.975 71.9625 55.8297 71.4297C55.6844 70.8969 55.7156 70.3797 55.9234 69.8781C56.1328 69.3797 56.4656 69.025 56.925 68.8156C57.3828 68.6063 57.9359 68.6578 58.5828 68.9703C59.4187 69.4516 60.3484 69.8062 61.3687 70.0344C62.3906 70.2641 63.4031 70.3781 64.4047 70.3781C65.9078 70.3781 66.9875 70.1438 67.6437 69.675C68.3016 69.2031 68.6297 68.6156 68.6297 67.9047C68.6297 67.3016 68.4 66.8203 67.9422 66.4656C67.4813 66.1109 66.6797 65.8078 65.5297 65.5594L61.9953 64.8078C58.0531 63.9719 56.0797 61.9281 56.0797 58.6734C56.0797 57.2781 56.4562 56.05 57.2078 54.9953C57.9594 53.9437 59.0062 53.1234 60.3531 52.5406C61.6984 51.9578 63.2562 51.6641 65.0312 51.6641C66.1984 51.6641 67.3469 51.8047 68.4719 52.0875C69.6 52.3672 70.5906 52.7797 71.4469 53.3234C71.9672 53.6359 72.2922 54.0438 72.4172 54.5438C72.5422 55.0453 72.5062 55.525 72.3078 55.9859C72.1094 56.4438 71.775 56.7672 71.3063 56.9531C70.8344 57.1422 70.2562 57.0703 69.5687 56.7344C68.8781 56.3797 68.1469 56.1203 67.3766 55.9531C66.6047 55.7875 65.8125 55.7031 64.9984 55.7031C63.6844 55.7031 62.6687 55.9578 61.9469 56.4703C61.2281 56.9828 60.8672 57.6438 60.8672 58.4563C60.8672 59.0625 61.0859 59.5516 61.5266 59.9281C61.9641 60.3031 62.7266 60.6062 63.8109 60.8344L67.3453 61.5859C71.3922 62.4625 73.4172 64.4453 73.4172 67.5328C73.4172 68.9078 73.0453 70.1156 72.3062 71.1469C71.5656 72.1813 70.5203 72.9828 69.1766 73.5563C67.8328 74.1281 66.2422 74.4156 64.4047 74.4156Z" fill="#9C34C2"/>
</svg>
